<svg xmlns="http://www.w3.org/2000/svg" xmlns:xlink="http://www.w3.org/1999/xlink" viewBox="0 0 904.4 260"><defs><style>.cls-1{fill:#fff;}.cls-2{fill:none;stroke:#fff;stroke-miterlimit:10;stroke-width:0.3px;}.cls-3{fill:url(#linear-gradient);}.cls-4{fill:url(#linear-gradient-2);}</style><linearGradient id="linear-gradient" x1="125.87" y1="254.23" x2="16.06" y2="99.28" gradientUnits="userSpaceOnUse"><stop offset="0" stop-color="#00a085"/><stop offset="1" stop-color="#39d8ba"/></linearGradient><linearGradient id="linear-gradient-2" x1="193.56" y1="206.26" x2="83.74" y2="51.31" xlink:href="#linear-gradient"/></defs><title>logo</title><g id="Capa_2" data-name="Capa 2"><g id="Capa_1-2" data-name="Capa 1"><path class="cls-1" d="M375,109.1,355.06,66.27h-.57L335.7,109.44Zm-84.05,42.37L350.53,19.41a3.56,3.56,0,0,1,3.31-2.18h2a3.33,3.33,0,0,1,3.35,2.11l61.33,131a3.44,3.44,0,0,1-3.26,5.11l-17,.15c-2.92,0-4.31-1.13-5.7-3.86l-9.77-21-58.43.51-9.38,21.19a5.89,5.89,0,0,1-5.64,4l-17,.15a3.45,3.45,0,0,1-3.37-5"/><path class="cls-1" d="M495.18,80.29c10.36-.1,19.28-9.16,19.18-20.1-.09-10.36-9.16-18.89-19.52-18.79L463,41.68l.34,38.89Zm-58-58.12a3.7,3.7,0,0,1,3.69-3.74l55.87-.5c23.45-.21,42.78,18.38,43,41.64.16,18-11.63,32.73-28.58,39.74l27.22,49.38c1.39,2.54.05,5.68-3.28,5.7l-20.52.19a3.34,3.34,0,0,1-3.13-1.73L485,101.28l-21.68.2.44,49.83a3.86,3.86,0,0,1-3.69,3.75l-18,.15a3.71,3.71,0,0,1-3.75-3.68Z"/><path class="cls-1" d="M581.68,18.16a3.29,3.29,0,0,1,3.5-3l3.13,0a3.51,3.51,0,0,1,3.32,1.93L635.45,109H636l42.19-92.6a3.34,3.34,0,0,1,3.3-2l3.12,0a3.29,3.29,0,0,1,3.54,2.9l24.23,131.11c.6,2.74-.94,4.51-3.47,4.53l-17.79.16a4.23,4.23,0,0,1-3.74-2.89l-12.18-74h-.6l-33.52,77.11a3.33,3.33,0,0,1-3.3,2.17l-3.52,0a3.52,3.52,0,0,1-3.34-2.12L595.69,76.86h-.58L584.42,151a3.78,3.78,0,0,1-3.5,3l-17.57.15c-2.55,0-4.13-1.72-3.76-4.46Z"/><path class="cls-1" d="M738.14,19.52a3.84,3.84,0,0,1,3.67-3.75L760,15.61a3.83,3.83,0,0,1,3.74,3.68l1.14,129.36a3.83,3.83,0,0,1-3.68,3.75l-18.16.16a3.83,3.83,0,0,1-3.74-3.68Z"/><path class="cls-1" d="M828.62,81.65,789,20.82c-1.61-2.52,0-5.46,3.25-5.49l22.68-.2a3.92,3.92,0,0,1,3.15,1.72l25.39,41.21h.18l25-41.65a3.61,3.61,0,0,1,3.11-1.78l22.69-.2c3.3,0,4.91,2.89,3.35,5.44L859.1,81.38l41.21,64.33c1.6,2.71.05,5.47-3.26,5.5l-21.12.19a4,4,0,0,1-3.34-1.74l-28.34-44.5h-.59l-27.15,45a4.28,4.28,0,0,1-3.3,1.78l-21.12.19c-3.52,0-5.1-2.89-3.57-5.44Z"/><path class="cls-1" d="M597.14,213.56l-.65,0-1.09.71-19.89,44a1.16,1.16,0,0,0,1.13,1.69l5.67-.05a2,2,0,0,0,1.87-1.31l3.13-7.07,19.49-.16,3.25,7a1.88,1.88,0,0,0,1.91,1.3l5.65-.06a1.15,1.15,0,0,0,1.1-1.7l-20.45-43.67Zm-6.7,30.75,6.26-14.39h.19l6.65,14.27Z"/><path class="cls-1" d="M656.37,213.14a23.43,23.43,0,0,0,.41,46.85,32.74,32.74,0,0,0,16.13-4.38l.5-1-.14-16.69-1.18-1.22-12.52.11a1.2,1.2,0,0,0-1.22,1.26l0,5.14a1.18,1.18,0,0,0,1.25,1.16l5.2-.05.06,5.55a20.53,20.53,0,0,1-7.74,1.7,14.83,14.83,0,0,1-14.78-14.8c-.07-8.14,6.32-15.18,14.46-15.24a14.77,14.77,0,0,1,9.87,3.68h1.69l4-4.27-.09-1.82a24.68,24.68,0,0,0-16-5.93"/><path class="cls-1" d="M722.71,213.33l-26.53.22a1.25,1.25,0,0,0-1.22,1.26l.38,43.13a1.24,1.24,0,0,0,1.25,1.23l26.52-.24a1.21,1.21,0,0,0,1.21-1.25l0-5.34a1.23,1.23,0,0,0-1.24-1.22l-19.28.18-.1-11.42,16.09-.14A1.22,1.22,0,0,0,721,238.5l-.05-5.42-1.24-1.22-16.09.12-.1-10.66,19.29-.18A1.21,1.21,0,0,0,724,219.9l0-5.35a1.23,1.23,0,0,0-1.24-1.22"/><path class="cls-1" d="M748.44,212.56h-1.63l-1.22,1.18.38,43.84,1.25,1.24,5.92-.06a1.24,1.24,0,0,0,1.24-1.25l-.25-28h.07l27.49,29.66h1.57l1.22-1.19-.39-43.85-1.24-1.22-6,0a1.24,1.24,0,0,0-1.22,1.25l.24,26.91h-.07Z"/><path class="cls-1" d="M828.45,212a23.46,23.46,0,1,0,.41,46.92,22.37,22.37,0,0,0,15.78-6.47l.05-1.76-4.08-4.13H839a15.57,15.57,0,0,1-10,3.8,14.75,14.75,0,0,1-14.72-14.91c-.07-8.21,6.06-15.25,14.39-15.33a15.5,15.5,0,0,1,10.08,3.76h1.62l3.94-4.14-.08-1.84A22.11,22.11,0,0,0,828.45,212"/><path class="cls-1" d="M896.34,212.12l-6.7.06-1,.61-10.28,15.07L867.75,213l-1-.58-6.64.05a1.21,1.21,0,0,0-1,1.91L874.08,236l.18,20.72a1.23,1.23,0,0,0,1.25,1.23l6-.05,1.21-1.25-.18-20.78L897.4,214a1.2,1.2,0,0,0-1.06-1.88"/><line class="cls-2" x1="904.4" y1="185.47" x2="576.26" y2="185.47"/><path class="cls-3" d="M22.14,102.93l.43-1.09C4.06,143.94-5.18,185.69,3,190.06c12.79,6.83,83.94-24.67,124.88-42.86C75,125.87,22.14,102.93,22.14,102.93"/><path class="cls-4" d="M25,97.5S63.19.44,113.58,0,244.69,168.32,236.24,176.91,25,97.5,25,97.5"/></g></g></svg>